<mxfile host="app.diagrams.net" agent="Mozilla/5.0 (Windows NT 10.0; Win64; x64) AppleWebKit/537.36 (KHTML, like Gecko) Chrome/139.0.0.0 Safari/537.36 Edg/139.0.0.0" version="28.1.2">
  <diagram name="第 1 页" id="yVzgTeF2oIL6ji12994H">
    <mxGraphModel dx="776" dy="1138" grid="1" gridSize="10" guides="1" tooltips="1" connect="1" arrows="1" fold="1" page="1" pageScale="1" pageWidth="5000" pageHeight="5000" math="0" shadow="0">
      <root>
        <mxCell id="0" />
        <mxCell id="1" parent="0" />
        <mxCell id="0X1F0oHZ8-SEi6dE8JRd-3" style="edgeStyle=orthogonalEdgeStyle;rounded=0;orthogonalLoop=1;jettySize=auto;html=1;fontSize=16;" edge="1" parent="1" source="0X1F0oHZ8-SEi6dE8JRd-1" target="0X1F0oHZ8-SEi6dE8JRd-2">
          <mxGeometry relative="1" as="geometry" />
        </mxCell>
        <mxCell id="0X1F0oHZ8-SEi6dE8JRd-1" value="开始" style="rounded=1;whiteSpace=wrap;html=1;fontSize=16;" vertex="1" parent="1">
          <mxGeometry x="160" y="80" width="120" height="40" as="geometry" />
        </mxCell>
        <mxCell id="0X1F0oHZ8-SEi6dE8JRd-10" style="edgeStyle=orthogonalEdgeStyle;rounded=0;orthogonalLoop=1;jettySize=auto;html=1;entryX=0.5;entryY=0;entryDx=0;entryDy=0;fontSize=16;" edge="1" parent="1" source="0X1F0oHZ8-SEi6dE8JRd-2" target="0X1F0oHZ8-SEi6dE8JRd-4">
          <mxGeometry relative="1" as="geometry" />
        </mxCell>
        <mxCell id="0X1F0oHZ8-SEi6dE8JRd-2" value="提交举报" style="rounded=0;whiteSpace=wrap;html=1;fontSize=16;" vertex="1" parent="1">
          <mxGeometry x="160" y="160" width="120" height="40" as="geometry" />
        </mxCell>
        <mxCell id="0X1F0oHZ8-SEi6dE8JRd-11" style="edgeStyle=orthogonalEdgeStyle;rounded=0;orthogonalLoop=1;jettySize=auto;html=1;entryX=0.5;entryY=0;entryDx=0;entryDy=0;fontSize=16;" edge="1" parent="1" source="0X1F0oHZ8-SEi6dE8JRd-4" target="0X1F0oHZ8-SEi6dE8JRd-5">
          <mxGeometry relative="1" as="geometry" />
        </mxCell>
        <mxCell id="0X1F0oHZ8-SEi6dE8JRd-4" value="自动筛选" style="rounded=0;whiteSpace=wrap;html=1;fontSize=16;" vertex="1" parent="1">
          <mxGeometry x="160" y="240" width="120" height="40" as="geometry" />
        </mxCell>
        <mxCell id="0X1F0oHZ8-SEi6dE8JRd-12" style="edgeStyle=orthogonalEdgeStyle;rounded=0;orthogonalLoop=1;jettySize=auto;html=1;entryX=0;entryY=0.5;entryDx=0;entryDy=0;fontSize=16;" edge="1" parent="1" source="0X1F0oHZ8-SEi6dE8JRd-5" target="0X1F0oHZ8-SEi6dE8JRd-7">
          <mxGeometry relative="1" as="geometry">
            <Array as="points">
              <mxPoint x="310" y="340" />
              <mxPoint x="310" y="100" />
            </Array>
          </mxGeometry>
        </mxCell>
        <mxCell id="0X1F0oHZ8-SEi6dE8JRd-5" value="分配审核任务到管理员" style="rounded=0;whiteSpace=wrap;html=1;fontSize=16;" vertex="1" parent="1">
          <mxGeometry x="160" y="320" width="120" height="40" as="geometry" />
        </mxCell>
        <mxCell id="0X1F0oHZ8-SEi6dE8JRd-13" style="edgeStyle=orthogonalEdgeStyle;rounded=0;orthogonalLoop=1;jettySize=auto;html=1;entryX=0.5;entryY=0;entryDx=0;entryDy=0;fontSize=16;" edge="1" parent="1" source="0X1F0oHZ8-SEi6dE8JRd-7" target="0X1F0oHZ8-SEi6dE8JRd-8">
          <mxGeometry relative="1" as="geometry" />
        </mxCell>
        <mxCell id="0X1F0oHZ8-SEi6dE8JRd-7" value="执行操作&lt;br&gt;（下架/封禁/警告）" style="rounded=0;whiteSpace=wrap;html=1;fontSize=16;" vertex="1" parent="1">
          <mxGeometry x="330" y="80" width="180" height="40" as="geometry" />
        </mxCell>
        <mxCell id="0X1F0oHZ8-SEi6dE8JRd-14" style="edgeStyle=orthogonalEdgeStyle;rounded=0;orthogonalLoop=1;jettySize=auto;html=1;entryX=0.5;entryY=0;entryDx=0;entryDy=0;fontSize=16;" edge="1" parent="1" source="0X1F0oHZ8-SEi6dE8JRd-8" target="0X1F0oHZ8-SEi6dE8JRd-9">
          <mxGeometry relative="1" as="geometry" />
        </mxCell>
        <mxCell id="0X1F0oHZ8-SEi6dE8JRd-8" value="支持申诉" style="rounded=0;whiteSpace=wrap;html=1;fontSize=16;" vertex="1" parent="1">
          <mxGeometry x="360" y="160" width="120" height="40" as="geometry" />
        </mxCell>
        <mxCell id="0X1F0oHZ8-SEi6dE8JRd-9" value="结束" style="rounded=1;whiteSpace=wrap;html=1;fontSize=16;" vertex="1" parent="1">
          <mxGeometry x="360" y="240" width="120" height="40" as="geometry" />
        </mxCell>
      </root>
    </mxGraphModel>
  </diagram>
</mxfile>
